<svg width="32" height="32" viewBox="0 0 32 32" fill="none" xmlns="http://www.w3.org/2000/svg">
<path d="M7.64863 19.1294L6.60438 23.0277L2.78764 23.1085C1.64699 20.9928 1 18.5723 1 16C1 13.5126 1.60492 11.167 2.67719 9.10164H2.67801L6.07598 9.72461L7.56449 13.1022C7.25295 14.0105 7.08314 14.9855 7.08314 16C7.08326 17.1011 7.28272 18.1561 7.64863 19.1294Z" fill="#FBBB00"/>
<path d="M30.7377 13.1978C30.91 14.1052 30.9998 15.0423 30.9998 16C30.9998 17.0739 30.8869 18.1214 30.6718 19.1319C29.9416 22.5704 28.0336 25.5728 25.3905 27.6975L25.3897 27.6967L21.1098 27.4783L20.504 23.697C22.2579 22.6684 23.6285 21.0588 24.3505 19.1319H16.3296V13.1978H24.4675H30.7377Z" fill="#518EF8"/>
<path d="M25.3898 27.6967L25.3906 27.6975C22.82 29.7637 19.5546 31 16 31C10.2876 31 5.32113 27.8072 2.7876 23.1085L7.64859 19.1294C8.91533 22.5102 12.1766 24.9168 16 24.9168C17.6433 24.9168 19.1829 24.4725 20.5041 23.697L25.3898 27.6967Z" fill="#28B446"/>
<path d="M25.5745 4.45328L20.7152 8.43156C19.3479 7.57691 17.7316 7.0832 16.0001 7.0832C12.0902 7.0832 8.76789 9.60021 7.56461 13.1022L2.67807 9.10164H2.67725C5.17369 4.28846 10.2028 1 16.0001 1C19.6396 1 22.9767 2.29645 25.5745 4.45328Z" fill="#F14336"/>
</svg>
